<?xml version="1.0" standalone="no"?>
<!DOCTYPE svg PUBLIC "-//W3C//DTD SVG 20010904//EN"
 "http://www.w3.org/TR/2001/REC-SVG-20010904/DTD/svg10.dtd">
<svg version="1.0" xmlns="http://www.w3.org/2000/svg"
 width="1600.000000pt" height="1600.000000pt" viewBox="0 0 1600.000000 1600.000000"
 preserveAspectRatio="xMidYMid meet">
<metadata>
Created by potrace 1.11, written by Peter Selinger 2001-2013
</metadata>
<g transform="translate(0.000000,1600.000000) scale(0.100000,-0.100000)"
fill="#000000" stroke="none">
<path d="M10394 15600 c-5 -5 -34 -11 -64 -14 -67 -6 -142 -19 -235 -41 -38
-9 -77 -18 -85 -20 -39 -9 -225 -67 -235 -73 -5 -4 -14 -7 -20 -8 -70 -12
-455 -194 -625 -297 -164 -99 -394 -262 -461 -326 -9 -9 -43 -38 -75 -66 -102
-89 -304 -297 -304 -314 0 -5 -4 -11 -8 -13 -11 -4 -121 -140 -147 -180 -5 -9
-31 -46 -57 -83 -27 -36 -48 -68 -48 -71 0 -3 -9 -17 -19 -32 -31 -44 -68
-106 -69 -116 0 -5 -5 -12 -10 -15 -16 -10 -208 -395 -217 -436 -1 -5 -8 -23
-14 -40 -44 -103 -121 -349 -135 -425 -2 -14 -5 -25 -6 -25 -2 0 -10 -37 -12
-62 -1 -13 -5 -23 -8 -23 -3 0 -5 -10 -6 -22 0 -13 -4 -45 -8 -73 -4 -27 -9
-61 -12 -75 -19 -128 -24 -386 -11 -525 4 -43 9 -81 11 -83 12 -11 368 0 437
13 13 3 38 7 54 10 140 24 298 65 409 106 45 17 86 32 91 33 6 1 27 10 49 19
21 9 40 17 43 17 7 0 235 116 273 139 19 11 42 24 50 28 34 15 270 177 270
184 0 5 5 9 11 9 12 0 67 42 166 126 149 127 395 390 473 507 14 20 28 37 33
37 4 0 7 5 7 10 0 6 4 16 10 23 41 50 60 76 60 80 0 4 79 126 98 152 10 14 69
121 95 175 12 25 25 47 28 50 5 5 16 28 79 165 50 108 100 238 94 246 -3 5 -1
9 4 9 8 0 48 119 44 133 -1 4 3 7 10 7 6 0 9 3 5 6 -3 3 -2 17 3 30 6 14 12
35 14 47 3 12 13 49 22 82 9 33 17 67 19 75 2 8 10 49 18 90 9 41 18 95 22
120 3 25 8 56 10 70 22 146 27 597 7 657 -2 6 -11 10 -21 8 -41 -8 -77 -9 -87
-3 -6 4 -15 3 -20 -2z"/>
<path d="M10837 11864 c-1 -1 -60 -5 -132 -8 -182 -9 -312 -20 -370 -32 -11
-3 -37 -7 -59 -9 -21 -2 -46 -7 -55 -9 -9 -3 -31 -8 -48 -11 -18 -3 -46 -7
-61 -10 -46 -8 -251 -61 -332 -86 -41 -12 -78 -24 -82 -25 -5 -1 -10 -3 -13
-4 -3 -1 -9 -4 -15 -5 -5 -1 -12 -4 -15 -5 -3 -1 -8 -3 -12 -4 -5 -1 -14 -5
-20 -9 -7 -5 -13 -5 -13 -1 0 3 -6 2 -12 -4 -7 -5 -29 -13 -48 -17 -19 -4 -41
-11 -50 -16 -8 -5 -69 -29 -135 -53 -66 -25 -133 -50 -150 -56 -16 -6 -32 -12
-35 -12 -3 0 -22 -9 -42 -19 -21 -10 -42 -19 -48 -19 -6 0 -30 -9 -52 -20 -23
-11 -46 -20 -50 -20 -5 0 -28 -8 -51 -19 -159 -71 -480 -175 -632 -206 -50
-11 -252 -14 -292 -5 -21 5 -51 11 -68 13 -109 17 -458 134 -680 228 -16 7
-32 13 -35 14 -21 7 -140 54 -165 65 -11 5 -65 25 -120 45 -55 20 -109 41
-120 45 -62 26 -325 109 -460 145 -71 19 -267 57 -360 70 -158 23 -499 22
-657 -1 -43 -6 -73 -10 -143 -19 -27 -3 -57 -8 -65 -10 -8 -2 -31 -7 -50 -10
-19 -3 -46 -8 -60 -10 -14 -3 -34 -7 -45 -9 -11 -2 -49 -12 -85 -21 -36 -9
-76 -19 -89 -22 -14 -2 -28 -6 -33 -9 -4 -3 -16 -7 -25 -9 -39 -8 -189 -58
-199 -66 -7 -6 -16 -9 -20 -8 -5 1 -18 -2 -29 -6 -11 -4 -42 -17 -70 -27 -123
-48 -384 -176 -497 -244 -51 -31 -102 -62 -113 -68 -56 -32 -218 -147 -223
-158 -2 -5 -10 -8 -18 -8 -8 0 -14 -4 -14 -10 0 -5 -7 -10 -15 -10 -8 0 -15
-4 -15 -9 0 -5 -26 -28 -57 -52 -65 -49 -86 -67 -186 -159 -107 -98 -200 -194
-296 -305 -47 -55 -90 -105 -96 -111 -5 -6 -19 -23 -30 -38 -11 -16 -36 -49
-56 -75 -20 -25 -66 -91 -103 -146 -37 -55 -70 -104 -74 -110 -13 -17 -106
-177 -139 -240 -65 -121 -192 -394 -208 -445 -4 -14 -13 -38 -20 -55 -19 -44
-28 -68 -31 -85 -2 -8 -7 -23 -13 -35 -9 -20 -63 -181 -67 -200 -1 -5 -12 -43
-24 -84 -12 -41 -23 -81 -25 -90 -2 -9 -11 -45 -20 -81 -9 -36 -18 -75 -20
-87 -2 -11 -6 -30 -10 -42 -3 -11 -8 -33 -11 -48 -3 -16 -11 -59 -19 -98 -7
-38 -16 -87 -19 -107 -3 -21 -9 -55 -12 -75 -3 -21 -7 -49 -9 -63 -8 -56 -25
-189 -31 -245 -7 -68 -9 -93 -19 -255 -11 -169 -13 -602 -3 -622 6 -12 5 -18
-2 -18 -6 0 -9 -4 -6 -8 3 -5 8 -62 11 -128 9 -168 14 -231 20 -294 4 -30 8
-71 10 -90 13 -123 24 -211 29 -240 3 -14 8 -47 11 -75 3 -27 10 -75 15 -105
5 -30 12 -71 15 -90 7 -42 16 -98 21 -125 3 -11 6 -32 9 -47 16 -84 44 -225
49 -238 3 -8 7 -28 10 -45 3 -16 10 -48 15 -70 5 -22 17 -74 26 -115 9 -41 21
-83 26 -92 5 -10 8 -18 5 -18 -3 0 2 -24 11 -52 8 -29 17 -60 18 -68 2 -8 4
-15 5 -15 1 0 3 -7 5 -15 4 -25 46 -174 52 -190 3 -8 8 -24 10 -35 1 -11 7
-29 12 -40 5 -11 19 -54 31 -95 27 -91 39 -129 50 -155 5 -11 14 -38 20 -60 6
-22 15 -49 20 -60 5 -11 14 -38 21 -60 6 -22 15 -45 20 -50 4 -6 10 -22 13
-35 7 -35 96 -263 107 -275 5 -5 9 -17 9 -27 0 -10 4 -26 9 -36 10 -18 22 -47
66 -152 29 -68 39 -91 102 -230 43 -95 165 -348 177 -369 5 -7 32 -59 61 -115
29 -55 62 -117 73 -136 12 -19 29 -51 39 -70 78 -155 410 -665 613 -941 30
-40 66 -90 80 -110 14 -20 35 -50 47 -65 13 -16 64 -83 115 -149 51 -66 101
-129 110 -140 9 -11 43 -51 75 -90 68 -83 59 -72 153 -176 165 -181 466 -459
498 -459 6 0 12 -4 14 -9 11 -30 341 -222 448 -260 19 -7 44 -17 55 -21 30
-13 147 -48 175 -53 14 -3 41 -8 60 -11 19 -3 53 -9 75 -13 50 -8 311 -8 385
0 98 12 193 29 275 49 44 11 87 21 95 22 38 6 303 100 391 139 30 13 57 24 62
25 4 1 29 11 55 22 26 12 97 42 157 67 61 25 116 50 123 55 6 6 12 7 12 3 0
-4 7 -2 15 5 8 7 15 10 15 6 0 -4 14 0 30 9 17 9 30 13 30 10 0 -3 12 3 27 12
15 10 28 17 30 16 2 -2 5 -2 8 -2 13 3 21 6 35 12 33 13 183 57 247 72 100 24
106 25 133 30 14 2 50 8 80 14 57 10 134 20 230 28 76 7 378 7 470 0 83 -6
138 -13 220 -28 30 -6 69 -12 85 -14 17 -2 59 -11 95 -20 36 -8 73 -17 83 -20
38 -9 222 -63 247 -73 8 -3 17 -6 20 -7 3 -1 18 -7 33 -13 16 -7 34 -12 42
-12 8 0 17 -4 20 -10 3 -5 13 -10 21 -10 8 0 33 -9 57 -19 47 -22 72 -33 232
-98 61 -25 115 -46 120 -47 6 -2 28 -10 50 -20 50 -21 233 -85 260 -89 11 -2
31 -9 45 -14 14 -6 41 -14 60 -19 50 -11 50 -11 53 -13 1 -1 18 -4 37 -7 19
-2 42 -7 50 -10 8 -4 29 -8 45 -9 17 -2 44 -6 60 -9 96 -20 412 -28 510 -12
74 11 100 16 125 21 14 3 36 7 49 10 96 19 280 85 362 130 14 8 29 12 33 8 3
-3 6 -2 6 4 0 6 15 17 33 24 43 18 176 100 262 162 113 81 232 184 350 302
138 138 181 186 285 315 19 24 40 48 45 54 6 6 23 29 40 51 16 22 34 45 40 51
11 13 22 27 112 153 34 47 66 91 70 96 4 6 33 46 63 90 30 44 58 85 62 90 25
31 88 127 88 135 0 4 4 10 8 12 5 2 31 37 58 78 27 41 54 80 59 87 6 7 16 19
23 27 6 8 12 19 12 24 0 4 7 17 15 27 31 40 115 174 115 183 0 6 4 12 8 14 11
4 125 198 240 408 60 111 255 506 256 521 1 3 9 21 18 40 21 43 73 161 100
229 6 14 16 39 23 55 33 77 87 221 88 237 1 10 4 18 8 18 5 0 27 59 35 95 1 6
11 35 22 65 11 30 26 76 35 103 l14 47 -151 75 c-163 80 -209 106 -214 118 -2
4 -8 7 -14 7 -5 0 -28 12 -51 28 -23 15 -50 32 -59 37 -33 20 -154 104 -189
132 -20 15 -51 39 -69 53 -18 14 -39 31 -46 37 -7 7 -15 13 -18 13 -3 0 -18
12 -34 28 -16 15 -51 46 -78 68 -123 104 -314 309 -432 464 -23 30 -46 60 -52
67 -22 27 -130 194 -176 273 -58 99 -149 285 -189 385 -15 39 -34 84 -41 102
-8 17 -14 37 -14 45 0 8 -3 18 -7 22 -5 4 -8 11 -9 14 0 4 -3 14 -6 22 -6 16
-31 101 -33 110 0 3 -4 11 -8 18 -5 6 -6 12 -3 12 2 0 0 15 -5 33 -6 17 -12
43 -15 57 -3 14 -9 39 -14 55 -26 84 -67 362 -74 490 -1 28 -4 55 -7 60 -7 12
-3 458 5 535 12 125 21 195 30 235 4 17 8 46 11 65 2 19 6 44 8 55 9 36 38
160 42 175 2 8 8 30 14 48 5 18 10 34 11 37 0 3 2 10 5 17 20 64 28 93 26 93
-1 0 12 34 29 75 17 41 30 75 29 75 -1 0 8 22 19 49 12 27 22 51 22 54 0 2 13
31 30 63 16 33 27 59 24 59 -4 0 -2 6 4 13 6 7 28 46 49 87 22 41 52 94 66
117 15 24 27 45 27 47 0 5 41 70 57 91 5 6 17 24 27 40 37 58 189 259 254 334
103 120 344 355 452 441 24 19 53 43 64 53 41 35 141 107 222 159 46 29 83 57
83 61 1 10 -63 98 -174 237 -70 88 -324 345 -410 415 -33 27 -62 52 -65 55 -3
3 -23 19 -45 35 -22 16 -44 34 -50 39 -5 6 -37 29 -70 51 -33 22 -62 42 -65
45 -14 14 -121 80 -130 80 -5 0 -10 5 -10 10 0 6 -5 10 -10 10 -6 0 -34 15
-63 33 -29 18 -71 41 -94 52 -24 11 -43 23 -43 28 0 4 -5 7 -11 7 -6 0 -52 20
-103 44 -51 25 -135 61 -187 81 -52 20 -103 41 -114 46 -21 9 -200 67 -232 74
-10 3 -60 16 -112 30 -51 14 -96 23 -99 20 -3 -2 -10 -1 -16 4 -11 8 -147 37
-216 45 -19 3 -35 5 -35 6 0 1 -13 4 -30 5 -16 2 -52 6 -80 10 -27 3 -63 8
-80 10 -64 7 -384 23 -388 19z"/>
</g>
</svg>
